<?xml version="1.0" encoding="UTF-8" standalone="no"?>
<!DOCTYPE svg PUBLIC "-//W3C//DTD SVG 1.1//EN" "http://www.w3.org/Graphics/SVG/1.1/DTD/svg11.dtd">
<svg xmlns:serif="http://www.serif.com/" width="100%" height="100%" viewBox="0 0 945 271" version="1.1"  xmlns="http://www.w3.org/2000/svg" xml:space="preserve" style="fill-rule:evenodd;clip-rule:evenodd;stroke-linejoin:round;stroke-miterlimit:1.41421;">
    <g id="Ebene-1" serif:id="Ebene 1" transform="matrix(5.03538,0,0,5.03538,-116.2,-63.9222)">
        <g transform="matrix(1,0,0,1,23.0767,45.4805)">
            <path d="M0,0C0,-9.058 0,-17.687 11.792,-17.687C23.583,-17.687 23.583,-9.058 23.583,0C23.583,8.962 23.583,17.687 11.792,17.687C0,17.687 0,8.962 0,0M16.338,0C16.338,-8.773 15.817,-12.566 11.792,-12.566C7.766,-12.566 7.246,-8.773 7.246,0C7.246,8.772 7.766,12.565 11.792,12.565C15.817,12.565 16.338,8.772 16.338,0" style="fill:rgb(35,31,32);fill-rule:nonzero;"/>
        </g>
        <g transform="matrix(1,0,0,1,75.4526,63.1683)">
            <path d="M0,-34.806L0,-10.528C0,-5.407 -2.89,0 -11.604,0C-19.465,0 -23.253,-4.079 -23.253,-10.528L-23.253,-34.806L-16.102,-34.806L-16.102,-11.002C-16.102,-6.782 -14.303,-5.121 -11.697,-5.121C-8.572,-5.121 -7.151,-7.208 -7.151,-11.002L-7.151,-34.806L0,-34.806Z" style="fill:rgb(35,31,32);fill-rule:nonzero;"/>
        </g>
        <g transform="matrix(1,0,0,1,101.641,62.5983)">
            <path d="M0,-34.236L0,-28.545L-7.956,-28.545L-7.956,0L-15.107,0L-15.107,-28.545L-23.063,-28.545L-23.063,-34.236L0,-34.236Z" style="fill:rgb(35,31,32);fill-rule:nonzero;"/>
        </g>
        <g transform="matrix(1,0,0,1,105.002,62.5983)">
            <path d="M0,-34.236L12.882,-34.236C19.417,-34.236 21.974,-30.253 21.974,-23.993C21.974,-20.105 20.838,-13.941 12.454,-13.941L7.152,-13.941L7.152,0L0,0L0,-34.236ZM7.152,-19.205L11.13,-19.205C13.26,-19.205 14.729,-21.528 14.729,-23.803C14.729,-26.602 13.971,-28.972 10.75,-28.972L7.152,-28.972L7.152,-19.205Z" style="fill:rgb(35,31,32);fill-rule:nonzero;"/>
        </g>
        <g transform="matrix(1,0,0,1,154.395,63.1683)">
            <path d="M0,-34.806L0,-10.528C0,-5.407 -2.889,0 -11.603,0C-19.464,0 -23.252,-4.079 -23.252,-10.528L-23.252,-34.806L-16.101,-34.806L-16.101,-11.002C-16.101,-6.782 -14.302,-5.121 -11.697,-5.121C-8.572,-5.121 -7.152,-7.208 -7.152,-11.002L-7.152,-34.806L0,-34.806Z" style="fill:rgb(35,31,32);fill-rule:nonzero;"/>
        </g>
        <g transform="matrix(1,0,0,1,180.583,62.5983)">
            <path d="M0,-34.236L0,-28.545L-7.956,-28.545L-7.956,0L-15.107,0L-15.107,-28.545L-23.062,-28.545L-23.062,-34.236L0,-34.236Z" style="fill:rgb(35,31,32);fill-rule:nonzero;"/>
        </g>
        <g transform="matrix(1,0,0,1,197.913,16.007)">
            <path d="M0,25.743C-7.066,25.743 -12.814,19.969 -12.814,12.871C-12.814,5.774 -7.066,0 0,0C7.065,0 12.813,5.774 12.813,12.871C12.813,19.969 7.065,25.743 0,25.743M0,2.989C-5.422,2.989 -9.83,7.422 -9.83,12.871C-9.83,18.321 -5.422,22.754 0,22.754C5.418,22.754 9.83,18.321 9.83,12.871C9.83,7.422 5.418,2.989 0,2.989" style="fill:rgb(35,31,32);fill-rule:nonzero;"/>
        </g>
        <g transform="matrix(1,0,0,1,199.523,23.6783)">
            <path d="M0,9.892L3.433,9.59C7.032,9.276 6.483,5.747 6.349,4.197C6.074,1.053 5.397,-0.747 2.634,-0.504L-0.882,-0.196L0,9.892ZM1.36,1.168L2.448,1.074C3.914,0.947 4.056,2.581 4.22,4.44C4.438,6.97 4.272,7.955 2.988,8.067L1.97,8.157L1.36,1.168ZM-8.528,10.639L-5.094,10.337C-1.493,10.023 -2.042,6.495 -2.177,4.944C-2.452,1.799 -3.128,0 -5.892,0.243L-9.407,0.55L-8.528,10.639ZM-7.166,1.916L-6.077,1.822C-4.612,1.693 -4.47,3.328 -4.308,5.186C-4.087,7.715 -4.253,8.702 -5.538,8.814L-6.555,8.903L-7.166,1.916Z" style="fill:rgb(35,31,32);fill-rule:nonzero;"/>
        </g>
    </g>
</svg>
